<?xml version="1.0" standalone="no"?>
<!DOCTYPE svg PUBLIC "-//W3C//DTD SVG 20010904//EN"
 "http://www.w3.org/TR/2001/REC-SVG-20010904/DTD/svg10.dtd">
<svg version="1.0" xmlns="http://www.w3.org/2000/svg"
 width="720.000000pt" height="618.000000pt" viewBox="0 0 720.000000 618.000000"
 preserveAspectRatio="xMidYMid meet">

<g transform="translate(0.000000,618.000000) scale(0.100000,-0.100000)"
fill="#000000" stroke="none">
<path d="M3857 5806 c-45 -37 -67 -77 -67 -123 0 -40 -2 -43 -27 -43 -21 0
-34 9 -52 35 -13 20 -36 38 -50 42 -14 3 -31 10 -38 15 -7 6 -58 12 -113 15
l-101 6 -35 -34 c-50 -48 -64 -88 -64 -184 0 -69 3 -85 20 -100 11 -10 20 -31
20 -48 0 -26 -3 -28 -22 -22 -13 4 -43 10 -68 12 -25 3 -50 9 -57 15 -18 15
-134 48 -168 48 -42 0 -104 24 -189 70 -40 22 -80 40 -89 40 -24 0 -94 51
-177 130 -78 73 -97 84 -146 78 -23 -2 -30 -9 -34 -33 -4 -24 -11 -31 -35 -33
-16 -2 -38 -10 -49 -18 -11 -8 -30 -14 -41 -14 -11 0 -35 -9 -53 -20 -18 -11
-38 -20 -45 -20 -6 0 -39 -14 -71 -30 -32 -17 -68 -30 -78 -30 -11 0 -36 -7
-56 -16 -43 -18 -119 -53 -146 -66 -10 -6 -60 -23 -110 -39 -50 -16 -100 -33
-111 -38 -11 -5 -50 -23 -86 -40 -36 -17 -70 -31 -76 -31 -5 0 -20 -11 -32
-24 -15 -16 -38 -26 -71 -30 -27 -4 -52 -11 -55 -16 -3 -5 -31 -16 -63 -24
-61 -17 -72 -22 -253 -111 -107 -52 -118 -55 -143 -43 -26 11 -30 10 -47 -11
-18 -23 -19 -69 -19 -1520 0 -824 3 -1688 7 -1921 l6 -422 24 -29 c20 -24 28
-27 44 -19 10 6 19 21 19 34 0 19 7 25 36 31 37 6 70 19 159 61 28 13 57 24
66 24 9 0 34 14 55 31 22 17 66 46 99 66 132 76 185 110 207 130 29 28 176
109 231 128 23 8 54 15 69 15 15 0 29 4 33 10 3 5 20 14 38 19 79 24 152 52
195 75 101 52 204 96 227 96 13 0 32 11 43 25 24 30 42 32 42 5 0 -11 6 -20
14 -20 7 0 34 -18 59 -40 25 -22 48 -40 52 -40 4 0 41 -32 83 -70 87 -81 233
-182 286 -200 20 -6 49 -22 65 -35 15 -14 50 -31 77 -40 43 -15 70 -26 174
-74 14 -7 52 -27 85 -47 67 -38 163 -84 177 -84 5 0 31 -18 59 -40 28 -22 56
-40 62 -40 6 0 18 -6 26 -14 20 -17 122 -69 181 -92 25 -10 52 -23 60 -30 8
-7 60 -35 115 -64 136 -70 165 -89 165 -106 0 -24 36 -86 70 -121 27 -29 37
-33 85 -33 30 0 56 4 59 8 3 5 18 7 35 4 25 -3 32 1 45 27 9 17 22 31 28 31 6
0 19 6 27 14 9 7 43 24 76 37 33 13 71 31 85 40 55 35 87 54 135 78 28 13 63
35 78 48 16 13 36 23 45 23 10 0 47 18 84 39 37 22 94 49 128 60 33 12 77 32
98 45 20 13 47 26 59 30 11 4 27 13 33 21 7 8 27 15 44 15 17 0 51 9 75 20 24
11 51 20 61 20 24 0 129 55 160 85 23 21 54 37 223 113 98 45 126 55 141 49 8
-3 22 0 33 8 16 12 19 35 25 227 6 204 12 268 38 458 13 100 31 1395 33 2489
2 851 12 780 -101 717 -23 -14 -56 -27 -72 -31 -16 -4 -32 -11 -35 -16 -4 -5
-13 -9 -22 -9 -16 0 -40 -10 -163 -67 -41 -19 -95 -44 -120 -55 -25 -11 -52
-24 -60 -29 -8 -5 -22 -12 -30 -15 -27 -11 -84 -37 -121 -56 -20 -10 -45 -18
-55 -18 -11 0 -28 -7 -38 -15 -11 -8 -36 -15 -56 -15 -19 0 -44 -6 -55 -14
-11 -7 -44 -16 -74 -19 -29 -4 -63 -13 -75 -20 -31 -20 -138 -57 -167 -57 -13
0 -41 -9 -62 -20 -20 -11 -45 -20 -54 -20 -10 0 -34 -10 -53 -22 -19 -11 -77
-45 -128 -75 l-92 -53 -33 16 c-17 9 -45 26 -62 38 -49 35 -211 119 -282 146
-17 6 -46 22 -63 35 l-31 23 220 4 221 3 27 28 c26 25 28 34 28 105 l0 77 -33
3 c-30 3 -33 6 -26 25 4 12 9 72 11 133 4 108 4 111 -20 127 -13 8 -50 20 -81
26 -65 12 -76 17 -76 35 0 22 -39 64 -62 68 -14 2 -25 15 -33 38 -10 31 -18
36 -86 58 -41 13 -82 28 -91 33 -35 18 -111 10 -141 -15z m130 -67 c27 -6 55
-15 63 -20 8 -5 25 -13 38 -19 14 -6 22 -18 22 -34 0 -28 16 -43 50 -48 17 -2
27 -12 33 -33 17 -55 22 -60 88 -70 35 -6 70 -14 77 -19 7 -4 12 -32 12 -75 0
-62 -2 -70 -30 -96 -52 -50 -35 -103 40 -122 25 -7 35 -15 35 -29 0 -18 -13
-19 -315 -27 -411 -10 -681 -8 -697 5 -17 14 -16 73 1 87 15 13 25 51 33 129
4 46 1 57 -21 87 -21 28 -26 44 -26 94 0 50 4 65 27 91 27 32 27 32 97 26 39
-4 75 -11 80 -16 6 -6 16 -10 24 -10 8 0 32 -20 54 -45 38 -43 42 -45 96 -45
78 0 102 23 102 99 0 42 5 60 22 78 25 26 30 27 95 12z m-1423 -152 c87 -76
130 -107 150 -107 9 0 55 -20 103 -44 126 -64 159 -76 200 -76 40 0 87 -13
149 -41 23 -11 57 -19 76 -19 20 0 46 -8 58 -18 19 -15 21 -22 11 -40 -16 -29
-14 -167 2 -180 8 -7 107 -12 272 -14 l260 -3 104 -62 c58 -35 111 -63 118
-63 15 0 160 -72 216 -107 l37 -23 0 -235 c0 -128 -3 -236 -8 -238 -8 -5 -80
13 -122 30 -14 6 -65 18 -115 28 -49 9 -95 22 -102 27 -8 6 -10 31 -6 77 6 67
5 68 -25 89 -56 41 -111 26 -211 -55 -36 -29 -59 -42 -70 -37 -24 10 -191 42
-311 60 -152 22 -150 20 -150 99 0 57 -3 69 -25 90 -14 15 -36 25 -53 25 -31
0 -96 -39 -157 -94 -22 -20 -50 -39 -62 -42 -13 -4 -67 1 -120 10 -53 9 -98
14 -100 12 -3 -3 -26 2 -51 10 -26 7 -76 14 -111 14 -53 0 -62 2 -57 16 3 9 6
231 6 495 0 342 3 479 11 479 6 0 43 -28 83 -63z m-189 -452 l0 -460 -85 -6
c-73 -4 -98 -11 -177 -48 -51 -24 -93 -47 -93 -52 0 -4 -38 -34 -85 -66 -76
-52 -85 -61 -85 -90 0 -17 5 -35 11 -39 6 -4 46 -13 87 -20 42 -7 90 -19 107
-27 16 -8 44 -19 60 -25 60 -21 200 -74 215 -82 12 -6 15 -30 12 -136 -1 -71
-7 -160 -14 -199 -6 -38 -13 -216 -17 -395 l-6 -325 -25 -3 c-14 -1 -88 15
-165 38 -97 27 -159 40 -202 40 -60 0 -65 -2 -115 -46 -29 -25 -68 -59 -87
-75 -30 -25 -33 -33 -28 -65 3 -20 8 -39 11 -41 5 -5 64 -21 108 -30 15 -3 60
-33 101 -67 41 -33 113 -89 161 -124 47 -34 86 -69 86 -77 0 -9 -11 -20 -25
-25 -33 -13 -35 -62 -3 -84 30 -21 116 -21 139 0 10 9 25 14 34 11 13 -6 15
-44 15 -286 0 -252 -2 -284 -19 -324 -16 -38 -24 -45 -54 -50 -19 -3 -100 -37
-178 -76 -79 -39 -150 -71 -159 -71 -18 0 -106 -32 -116 -43 -4 -4 -16 -7 -26
-7 -53 0 -195 -65 -291 -132 -93 -67 -191 -129 -242 -155 -27 -14 -65 -39 -83
-54 -18 -16 -39 -29 -47 -29 -8 0 -43 -13 -77 -29 -126 -58 -140 -63 -152 -51
-8 8 -12 523 -14 1836 l-4 1824 34 14 c18 8 44 23 58 33 14 11 41 25 60 33 19
7 42 18 50 25 17 12 42 24 110 50 45 17 52 20 120 45 19 7 58 18 86 24 28 6
67 23 87 39 19 15 42 27 50 27 8 0 20 7 27 15 7 8 17 15 23 15 10 0 81 30 119
51 10 5 29 9 42 9 14 0 28 5 31 10 3 6 16 10 28 10 13 0 40 9 62 20 22 11 44
20 49 20 5 0 26 11 46 25 23 16 57 28 91 32 35 4 68 16 96 35 23 15 57 31 75
35 18 3 44 14 57 25 13 10 36 18 52 18 15 0 31 5 34 11 4 5 14 9 23 7 16 -3
17 -43 17 -463z m3641 -497 c-10 -1476 -24 -2446 -38 -2470 -15 -26 -26 -142
-36 -383 l-7 -170 -35 -17 c-19 -9 -64 -30 -100 -46 -36 -17 -96 -44 -135 -62
-38 -18 -81 -43 -95 -55 -31 -29 -117 -75 -140 -75 -10 0 -37 -9 -61 -20 -24
-11 -58 -20 -75 -20 -17 0 -42 -8 -55 -18 -35 -26 -124 -71 -197 -98 -34 -13
-81 -36 -103 -50 -23 -14 -58 -32 -78 -39 -20 -7 -62 -28 -92 -47 -29 -20 -73
-45 -96 -57 -59 -29 -115 -59 -133 -71 -8 -6 -40 -22 -70 -36 -30 -14 -71 -33
-90 -44 -19 -10 -38 -16 -42 -13 -5 2 -8 228 -8 502 0 423 2 503 15 527 12 23
15 75 15 261 0 215 7 279 26 221 3 -13 24 -62 46 -111 39 -87 60 -153 73 -237
4 -24 13 -54 20 -65 17 -27 35 -115 35 -171 0 -25 5 -54 10 -65 13 -23 62 -26
80 -4 7 8 18 15 25 15 7 0 38 19 70 43 44 32 63 55 81 96 23 50 24 64 23 245
0 193 -3 225 -33 374 -16 76 -16 86 -2 108 9 13 16 34 16 46 0 13 9 37 20 53
11 17 20 37 20 45 0 8 12 38 25 65 29 58 31 87 9 106 -12 10 -23 10 -47 1 -18
-6 -52 -12 -77 -14 l-45 -3 -7 85 c-3 47 -11 114 -18 149 l-12 64 48 48 c60
61 97 149 98 234 l1 60 -34 3 c-19 2 -52 -4 -72 -14 -64 -28 -64 -27 -89 196
-5 47 -12 104 -16 128 -7 46 9 74 51 93 34 15 88 50 118 75 16 13 32 24 37 24
4 0 57 49 118 108 77 75 118 123 134 158 13 28 38 68 56 89 26 32 32 48 32 87
0 42 -3 48 -24 54 -89 22 -274 -34 -424 -129 -98 -62 -238 -127 -274 -127 -46
0 -48 11 -48 242 l0 218 51 0 c41 0 63 7 109 35 32 19 61 35 65 35 3 0 37 17
73 39 37 21 99 47 137 56 73 18 170 53 220 79 17 9 51 16 76 16 29 0 51 6 59
15 7 8 29 15 49 15 20 0 51 9 69 20 18 11 42 20 55 20 12 0 33 9 47 20 14 11
35 20 46 20 12 0 27 7 34 15 7 8 20 15 30 15 10 0 23 7 30 15 7 8 23 15 35 15
12 0 28 7 35 15 7 8 20 15 29 15 10 0 26 7 37 15 10 8 26 15 35 15 9 0 28 9
42 20 14 11 34 20 44 20 11 0 28 7 39 15 10 8 31 15 45 15 15 0 32 7 39 15 7
8 28 15 46 15 l34 0 -4 -682z m-2896 -11 c0 -26 -59 -123 -88 -143 -32 -22
-124 -55 -145 -52 -17 3 -15 7 15 48 19 25 37 53 41 62 8 21 136 108 159 108
12 0 18 -8 18 -23z m-540 -66 c41 -6 110 -13 153 -17 43 -4 80 -11 83 -16 4
-5 -3 -19 -15 -32 -11 -12 -26 -36 -32 -54 -13 -38 -38 -47 -106 -38 -27 3
-164 11 -305 17 -226 10 -260 10 -281 -4 -20 -13 -26 -13 -50 -1 -15 8 -27 18
-27 22 1 13 82 75 133 100 29 14 77 29 107 33 71 9 244 4 340 -10z m1302 -121
c-3 -55 -9 -64 -67 -108 -57 -43 -96 -54 -111 -31 -9 15 15 89 37 114 10 11
22 32 28 47 7 20 18 28 43 31 71 9 73 8 70 -53z m-622 24 c52 -8 129 -19 170
-24 41 -6 91 -14 110 -19 19 -6 47 -12 62 -15 l26 -6 -5 -78 c-7 -103 1 -112
101 -112 64 0 77 3 107 27 19 14 43 40 54 57 13 19 28 30 40 29 47 -4 238 -52
248 -62 6 -6 26 -11 43 -11 18 0 36 -4 39 -10 3 -5 17 -10 31 -10 47 0 23 -27
-68 -80 -250 -143 -286 -152 -393 -95 -66 35 -322 125 -356 125 -27 0 -286 93
-369 133 -31 15 -74 30 -95 35 l-40 8 56 27 c30 15 73 42 95 61 21 20 41 35
44 35 3 1 48 -6 100 -15z m1780 -49 c10 -12 7 -27 -20 -79 -25 -49 -50 -78
-102 -120 -37 -31 -68 -60 -68 -66 0 -8 -56 -50 -154 -116 -17 -11 -53 -33
-81 -48 -27 -15 -66 -41 -86 -56 -20 -16 -49 -32 -63 -36 -15 -3 -31 -15 -37
-25 -5 -11 -35 -33 -67 -49 -31 -16 -75 -41 -97 -54 -48 -30 -201 -106 -213
-106 -8 0 -153 -59 -209 -85 -18 -8 -50 -22 -70 -32 -21 -9 -50 -22 -65 -30
-14 -7 -32 -13 -40 -13 -8 0 -36 -11 -64 -24 -27 -13 -76 -36 -109 -52 -33
-15 -67 -33 -75 -39 -19 -17 -74 -47 -185 -105 -49 -25 -106 -56 -125 -68 -19
-12 -44 -26 -56 -31 -11 -5 -42 -24 -68 -42 -60 -43 -85 -57 -183 -110 -43
-23 -96 -53 -118 -67 -22 -14 -58 -35 -80 -47 -74 -39 -145 -87 -155 -104 -5
-10 -47 -36 -94 -60 -65 -31 -86 -46 -86 -61 0 -13 -7 -20 -20 -20 -11 0 -20
5 -20 12 0 6 -9 3 -20 -7 -11 -10 -20 -14 -19 -9 0 5 20 25 44 44 25 19 47 45
50 56 4 12 17 27 31 34 13 7 26 20 29 29 7 18 115 109 153 128 13 7 31 13 39
13 8 0 37 25 65 55 27 30 55 55 62 55 7 0 30 18 51 40 21 22 43 40 48 40 5 0
31 15 57 34 26 18 56 37 67 40 11 4 28 15 38 26 10 11 27 20 38 20 11 0 35 11
53 25 18 14 35 25 38 25 7 0 96 62 143 100 73 57 98 76 129 95 18 11 77 54
131 97 55 42 140 99 189 126 49 28 100 59 114 70 35 28 346 182 365 182 5 0
16 6 24 14 21 19 166 96 181 96 12 0 38 12 249 111 68 33 125 59 127 59 2 0
36 21 76 47 68 44 193 100 229 102 9 1 22 -6 29 -14z m-2460 -86 c19 -6 96
-15 170 -19 104 -6 146 -12 183 -29 27 -11 56 -21 64 -21 9 0 49 -15 88 -34
40 -19 87 -39 106 -45 19 -5 72 -24 119 -41 47 -18 105 -35 130 -40 25 -4 72
-17 105 -28 33 -11 90 -29 126 -41 71 -22 152 -69 143 -83 -3 -4 -22 -17 -42
-28 -20 -11 -49 -30 -64 -42 l-28 -22 -23 22 c-12 11 -49 30 -82 41 -33 11
-80 27 -105 36 -25 9 -85 27 -135 40 -157 42 -318 91 -370 114 -27 12 -79 30
-115 41 -173 49 -271 80 -335 104 -38 15 -90 32 -115 36 -60 12 -101 25 -135
42 -26 14 -15 15 126 12 85 -1 170 -8 189 -15z m-54 -165 c37 -16 94 -32 289
-86 44 -12 91 -29 105 -39 23 -16 108 -44 214 -70 21 -5 66 -19 100 -31 34
-11 93 -28 131 -38 39 -9 88 -26 110 -37 22 -11 55 -24 73 -28 17 -3 32 -12
32 -18 0 -7 -28 -30 -63 -51 -61 -39 -91 -61 -165 -122 -20 -17 -71 -52 -112
-79 -41 -27 -91 -63 -111 -81 -49 -43 -142 -102 -204 -130 -28 -12 -57 -29
-64 -38 -7 -9 -21 -16 -30 -16 -10 0 -28 -11 -41 -25 -13 -14 -28 -25 -35 -25
-10 0 -114 -78 -187 -140 -33 -28 -39 -30 -60 -18 -13 7 -41 17 -63 23 l-40
10 0 382 c0 292 3 385 13 395 7 7 12 39 12 78 0 36 3 95 7 133 5 61 8 67 28
67 13 0 40 -7 61 -16z m2039 -401 c4 -43 11 -105 16 -138 12 -84 12 -175 -2
-175 -19 0 -90 -61 -120 -103 -26 -35 -29 -48 -29 -113 0 -63 3 -76 23 -94 19
-19 32 -21 100 -18 42 2 77 3 78 3 0 0 5 -43 10 -95 5 -52 12 -116 15 -142 6
-44 3 -51 -34 -98 -23 -28 -48 -71 -58 -96 -18 -48 -40 -58 -49 -21 -3 12 -11
72 -19 133 -8 61 -25 144 -39 185 -13 41 -36 115 -51 164 -15 50 -32 104 -38
120 -6 17 -16 64 -23 105 -7 41 -18 89 -23 105 -6 17 -20 64 -31 105 l-20 75
20 16 c11 8 37 24 57 34 21 10 62 38 94 62 31 24 63 43 72 43 8 0 18 5 21 10
15 24 24 5 30 -67z m-358 -164 c7 -16 24 -94 38 -172 14 -78 31 -155 36 -172
20 -58 39 -136 39 -156 0 -12 9 -32 20 -46 11 -14 20 -41 20 -59 0 -18 9 -48
19 -66 20 -33 34 -93 52 -223 5 -38 24 -115 43 -170 59 -175 68 -209 64 -245
-6 -62 -19 -47 -81 91 -14 31 -31 75 -37 97 -6 23 -15 44 -20 47 -6 3 -10 17
-10 30 0 13 -8 31 -17 41 -24 24 -41 59 -49 102 -4 20 -20 66 -36 102 -106
234 -146 345 -198 550 -28 107 -64 187 -87 193 -14 3 -11 6 12 15 17 7 38 17
47 22 10 6 23 10 30 10 7 1 31 9 53 20 51 25 49 25 62 -11z m-257 -92 c0 -7
12 -37 26 -67 14 -30 35 -92 46 -139 21 -87 68 -240 92 -295 7 -17 28 -67 46
-111 18 -44 48 -111 66 -150 66 -139 64 -130 54 -303 -5 -86 -10 -242 -10
-347 -1 -145 -4 -196 -15 -215 -12 -21 -14 -113 -15 -542 0 -312 -4 -518 -9
-518 -16 0 -51 52 -51 75 0 33 -63 85 -165 135 -50 25 -111 59 -137 77 -26 18
-54 33 -62 33 -18 0 -106 44 -174 87 -29 18 -57 33 -62 33 -5 0 -24 13 -43 29
-18 17 -75 48 -127 70 -51 23 -101 47 -109 54 -9 7 -27 18 -41 25 -14 7 -32
16 -40 21 -24 16 -196 90 -224 97 -14 3 -30 12 -37 20 -6 8 -16 14 -21 14 -20
0 -219 123 -255 158 -95 92 -252 212 -277 212 -28 0 -36 26 -15 47 7 7 10 77
7 217 -3 228 -1 232 52 106 17 -41 36 -78 43 -82 37 -24 173 20 201 65 10 16
15 77 19 240 3 144 8 222 16 230 6 6 11 32 11 57 0 52 9 64 77 102 126 69 155
86 209 123 32 21 80 49 105 62 25 12 52 29 59 38 7 8 20 15 30 15 10 0 23 7
30 15 7 8 21 15 31 15 10 0 20 4 23 9 3 5 34 23 68 41 35 18 77 43 95 56 17
13 38 24 46 24 8 0 20 7 27 15 7 8 18 15 25 15 11 0 44 14 117 51 10 5 26 9
37 9 10 0 24 7 31 15 7 8 19 15 27 15 14 0 31 7 98 42 37 20 75 22 75 5z m800
-102 c0 -48 -69 -135 -106 -135 -8 0 -19 -11 -24 -25 -10 -26 -42 -39 -81 -33
-32 4 -36 43 -9 85 21 34 103 92 131 93 9 0 30 7 45 15 37 19 44 19 44 0z
m-2750 -259 c30 -8 82 -23 115 -35 33 -11 75 -21 93 -21 18 0 51 -9 72 -19 22
-11 63 -22 92 -26 29 -4 57 -10 61 -12 12 -7 -88 -103 -107 -103 -9 0 -16 -4
-16 -9 0 -14 -93 -121 -105 -121 -11 1 -183 129 -259 193 -25 21 -67 46 -93
56 -26 9 -48 22 -48 28 0 19 88 82 115 82 14 0 50 -6 80 -13z m643 -378 c-2
-35 -6 -79 -9 -98 -3 -19 -9 -98 -12 -174 l-7 -139 -30 -18 c-16 -10 -33 -18
-37 -18 -7 -1 -48 80 -48 96 0 5 -22 47 -50 92 -40 66 -50 91 -50 126 0 43 2
45 45 65 24 11 56 36 71 55 14 19 31 35 38 35 6 0 22 9 36 20 46 36 57 28 53
-42z m2145 -35 c-18 -63 -77 -123 -121 -123 -19 0 -36 3 -40 6 -10 11 52 124
68 124 9 0 19 10 24 21 4 12 23 27 42 33 42 14 46 4 27 -61z m-62 -225 c23
-37 33 -149 34 -366 0 -261 -3 -273 -66 -313 -33 -20 -38 -21 -48 -7 -7 9 -18
47 -26 85 -7 37 -19 78 -27 90 -8 12 -17 46 -20 75 -4 45 -1 62 21 106 32 63
34 137 7 219 -25 77 -32 109 -24 117 11 11 141 7 149 -6z"/>
<path d="M1876 5318 c-28 -103 -49 -189 -62 -260 l-17 -87 -69 -16 c-87 -19
-184 -68 -193 -95 -19 -61 22 -80 188 -87 147 -7 157 -12 157 -79 0 -52 31
-120 58 -128 29 -10 52 3 58 33 2 14 9 42 14 61 5 19 12 56 15 81 4 25 10 51
13 56 7 11 81 40 174 69 100 31 104 111 5 129 -20 4 -40 11 -43 16 -3 5 -23 9
-44 9 -22 0 -60 5 -84 12 -35 9 -47 19 -61 47 -15 32 -21 56 -44 186 -4 23
-11 46 -15 53 -10 16 -46 16 -50 0z m51 -315 c13 -38 17 -42 56 -47 110 -15
128 -19 124 -30 -2 -6 -33 -22 -69 -34 -61 -22 -67 -26 -72 -58 -8 -40 -10
-40 -43 -14 -22 17 -41 20 -124 20 -54 0 -100 4 -104 9 -7 12 26 31 55 31 11
0 38 6 60 12 42 14 63 47 76 121 8 47 24 43 41 -10z"/>
<path d="M1225 3828 c-2 -13 -6 -39 -7 -58 -3 -34 -5 -35 -48 -40 -63 -7 -90
-48 -90 -137 0 -56 -3 -66 -20 -70 -30 -8 -64 -71 -71 -133 -4 -30 -10 -64
-14 -76 -4 -14 -1 -27 10 -38 15 -14 55 -16 368 -16 348 0 373 2 455 36 67 28
96 133 48 177 -18 17 -24 36 -28 79 -7 83 -14 88 -123 88 -66 0 -96 4 -104 14
-6 7 -30 17 -53 20 -59 10 -68 20 -68 80 0 62 -11 76 -61 76 -21 0 -41 5 -44
10 -3 6 -37 10 -75 10 -64 0 -70 -2 -75 -22z m173 -73 c7 -3 12 -23 12 -52 0
-57 21 -93 54 -93 13 0 35 -9 49 -20 14 -11 36 -20 49 -20 14 0 28 -3 32 -7 4
-4 38 -6 75 -4 l68 3 5 -61 c3 -46 10 -67 28 -86 52 -55 -4 -64 -383 -65 -340
0 -329 -2 -310 63 6 23 17 34 38 41 64 18 67 27 49 113 -3 18 -3 44 0 58 6 22
12 25 48 25 53 0 88 30 88 75 0 17 3 35 7 38 6 7 59 1 91 -8z"/>
<path d="M1187 2464 c-45 -23 -78 -49 -97 -76 -29 -40 -30 -45 -30 -150 0 -80
4 -120 16 -146 46 -103 62 -134 111 -219 29 -51 53 -96 53 -101 0 -4 15 -22
33 -40 56 -54 128 -35 147 38 18 69 45 136 77 190 100 169 97 161 101 316 l4
142 -34 24 c-57 41 -98 52 -208 55 -103 2 -106 2 -173 -33z m260 -55 c78 -32
73 -22 73 -135 0 -110 -4 -123 -73 -231 -15 -24 -27 -45 -27 -49 0 -3 -9 -17
-20 -31 -11 -14 -20 -38 -20 -52 0 -15 -7 -36 -15 -47 -8 -10 -15 -29 -15 -41
0 -36 -26 -27 -53 20 -87 149 -137 247 -137 268 0 10 -4 21 -10 24 -5 3 -10
46 -10 95 0 103 13 125 90 165 51 25 169 33 217 14z"/>
<path d="M1223 2288 c-19 -20 -23 -36 -23 -84 0 -88 15 -104 96 -104 59 0 67
3 100 33 30 28 37 42 41 83 7 73 -5 82 -107 90 -81 6 -86 5 -107 -18z m122
-68 c9 -15 -14 -40 -36 -40 -22 0 -33 16 -25 35 6 17 52 20 61 5z"/>
<path d="M5445 3943 c-54 -34 -94 -72 -111 -105 -21 -40 -19 -273 2 -347 68
-231 106 -324 157 -378 61 -65 92 -42 187 140 35 67 85 154 110 192 84 124 84
125 88 280 4 158 -7 211 -48 232 -17 9 -75 13 -185 12 -154 0 -161 -1 -200
-26z m349 -69 c3 -9 6 -69 6 -134 0 -131 -3 -140 -90 -270 -37 -56 -78 -127
-130 -223 -15 -28 -33 -52 -40 -52 -15 0 -60 82 -60 110 0 11 -9 37 -20 58
-12 21 -26 60 -32 85 -15 68 -25 342 -13 366 6 11 26 28 45 39 19 10 39 23 45
28 5 5 71 9 146 9 116 0 138 -2 143 -16z"/>
<path d="M5561 3803 c-19 -3 -45 -12 -58 -20 -23 -15 -24 -20 -21 -112 l3 -96
82 -3 82 -3 31 42 c24 34 30 52 30 95 0 65 -7 84 -30 84 -11 0 -22 5 -25 10
-6 10 -29 11 -94 3z m64 -93 c3 -5 0 -22 -7 -37 -25 -52 -86 -34 -72 21 5 21
12 26 39 26 19 0 37 -4 40 -10z"/>
<path d="M5557 2832 c-14 -16 -17 -41 -17 -158 0 -76 -4 -145 -8 -152 -8 -12
-69 -27 -165 -39 -49 -6 -72 -27 -61 -56 9 -24 45 -35 129 -42 55 -4 84 -11
92 -21 12 -17 18 -49 28 -156 l7 -68 34 0 c30 0 37 5 50 35 7 19 14 45 14 57
0 13 7 32 15 42 8 11 15 30 15 42 0 18 7 22 50 28 27 4 52 11 55 16 3 6 15 10
27 10 11 0 32 8 46 18 15 10 35 22 45 25 9 4 22 18 29 32 10 22 9 29 -8 44
-17 17 -84 35 -172 48 -40 6 -61 42 -72 123 -8 52 -32 137 -49 170 -12 23 -64
24 -84 2z m93 -327 c0 -33 20 -45 71 -45 104 0 50 -32 -73 -43 -47 -5 -58 -3
-58 9 0 9 7 22 16 31 8 9 14 25 13 37 0 11 -1 32 0 45 1 24 1 24 16 5 8 -10
15 -28 15 -39z"/>
<path d="M2531 1581 c-16 -11 -42 -120 -48 -211 -5 -69 -12 -80 -55 -80 -15 0
-53 -11 -84 -25 -31 -14 -69 -25 -85 -25 -26 0 -29 -3 -29 -33 0 -30 5 -36 38
-49 42 -17 138 -46 166 -50 16 -3 22 -20 38 -117 23 -137 32 -161 56 -161 43
0 112 132 121 229 6 63 7 65 39 73 18 5 48 18 68 28 19 11 47 20 63 20 60 0
99 91 41 98 -14 1 -54 9 -90 17 -36 8 -77 17 -91 20 -17 3 -30 15 -37 32 -16
43 -42 165 -42 195 0 37 -38 59 -69 39z m52 -302 c20 -40 26 -44 62 -47 l40
-4 -40 -14 c-22 -7 -48 -14 -57 -14 -15 0 -18 -13 -20 -92 -4 -114 -23 -132
-33 -31 -9 86 -18 103 -55 103 -76 0 -74 35 3 45 70 10 80 19 71 69 -7 48 -1
45 29 -15z"/>
</g>
</svg>
